<svg xmlns="http://www.w3.org/2000/svg" width="1em" height="1em" viewBox="0 0 24 24">
  <path d="M0 0h24v24H0z" fill="none" />
  <path fill="currentColor" d="M16.4 21h-2.154l-2-5H5.754l-2 5H1.6L8 5h2zm4.6-9v9h-2v-9zM6.554 14h4.892L9 7.885zM19.529 2.32a.507.507 0 0 1 .942 0l.253.61a4.37 4.37 0 0 0 2.25 2.327l.717.32a.53.53 0 0 1 0 .962l-.758.338a4.36 4.36 0 0 0-2.22 2.25l-.246.566a.506.506 0 0 1-.934 0l-.247-.565a4.36 4.36 0 0 0-2.219-2.251l-.76-.338a.53.53 0 0 1 0-.963l.718-.32a4.37 4.37 0 0 0 2.251-2.325z" />
</svg>
