<svg xmlns="http://www.w3.org/2000/svg" width="1em" height="1em" viewBox="0 0 24 24">
	<path d="M0 0h24v24H0z" fill="none" />
	<g fill="none" stroke="currentColor" stroke-linecap="round" stroke-width="1.5">
		<path d="M7.5 17.22C7.445 16.03 6.622 16 5.505 16c-1.72 0-2.005.406-2.005 2v2c0 1.594.285 2 2.005 2c1.117 0 1.94-.03 1.995-1.22m13-4.78l-1.777 4.695c-.33.87-.494 1.305-.755 1.305c-.26 0-.426-.435-.755-1.305L15.436 16m-2.56 0h-1.18c-.473 0-.709 0-.895.076c-.634.26-.625.869-.625 1.424s-.009 1.165.625 1.424c.186.076.422.076.894.076s.708 0 .894.076c.634.26.625.869.625 1.424s.009 1.165-.625 1.424c-.186.076-.422.076-.894.076H10.41" />
		<path stroke-linejoin="round" d="M20 13v-2.343c0-.818 0-1.226-.152-1.594c-.152-.367-.441-.657-1.02-1.235l-4.736-4.736c-.499-.499-.748-.748-1.058-.896a2 2 0 0 0-.197-.082C12.514 2 12.161 2 11.456 2c-3.245 0-4.868 0-5.967.886a4 4 0 0 0-.603.603C4 4.59 4 6.211 4 9.456V13m9-10.5V3c0 2.828 0 4.243.879 5.121C14.757 9 16.172 9 19 9h.5" />
	</g>
</svg>
